<?xml version="1.0" encoding="UTF-8"?>
<svg id="Layer_1" data-name="Layer 1" xmlns="http://www.w3.org/2000/svg" viewBox="0 0 2000 2000">
  <defs>
    <style>
      .cls-1 {
        fill: #fff;
      }
    </style>
  </defs>
  <g>
    <path class="cls-1" d="m683.15,1535.42c77.21-1.99,123.38-202.96,124.09-299.62,6.88,7.18,11.99,11.81,14.37,13.89,14.29,28.54-3.82,189.25-51.76,277.7-12.78,23.57-33.28,51.8-58.4,52.45-31.48.81-54.77,8.29-69.48,22.2h-34.96s-18.61-64.18,76.14-66.62Z"/>
    <path class="cls-1" d="m524.54,509.4c12.89-6.83,28.35-14.97,45.25-23.75,32.68-16.99,58.24-44.75,73.52-78.26,14.75-32.34,61.22-72.87,198.46-83.85,237.93-19.03,222.07,126.9,222.07,126.9,0,0,25.38,152.28-71.38,187.17-96.76,34.9-46-76.14-134.83-187.17,0,0,50.76,146.31,53.93,193.71,3.17,47.4,120.55,19.22,130.07,0,9.52-19.22,31.72,158.43,253.8,259.95,174.7,79.87,255.15,371.78,174.95,572.99-33.57-37.33-77.39-74.12-134.04-108.98,0,0-77.55-42.1-77.55-139.59s-83.64-181.68-83.64-181.68v62.04l-60.38-62.04-24.37,73.12s-4.43,13.29-35.45,17.73c-31.02,4.43,13.29,37.67-48.74,55.39,0,0-28.8,48.74,37.67,73.12,66.47,24.37,77.55,19.94,46.53,88.63-29.83,66.05-48.34,175.85,9.27,323.35-74.25-15.56-162.09-39.54-308.66-15.85,0,0,53.93-171.31,247.45-155.45,0,0-158.62-76.14-276,149.1h-126.9s-18.61-64.18,76.14-66.62c94.75-2.44,142.76-304.56,117.38-345.8,0,0-241.11-199.86-63.45-586.9,0,0-180.97,87.74-262.5-83.46-11.18-23.48-1.57-51.62,21.41-63.79Z"/>
  </g>
  <path class="cls-1" d="m1573.02,486.76c-1.33-1.32-2.09-3.15-2.09-5.03v-159.96h-139.09v159.96c0,1.87-.76,3.7-2.08,5.03-1.32,1.32-3.15,2.08-5.03,2.08h-159.96v139.09h159.96c1.87,0,3.7.76,5.03,2.09,1.32,1.32,2.08,3.15,2.08,5.02v159.96h139.09v-159.96c0-1.87.76-3.7,2.09-5.02,1.32-1.33,3.15-2.09,5.02-2.09h159.96v-139.09h-159.96c-1.87,0-3.7-.76-5.02-2.08Z"/>
</svg>