<?xml version="1.0" encoding="UTF-8"?>
<svg id="Layer_1" data-name="Layer 1" xmlns="http://www.w3.org/2000/svg" viewBox="0 0 2000 2000">
  <defs>
    <style>
      .cls-1 {
        fill: #fff;
      }
    </style>
  </defs>
  <g>
    <path class="cls-1" d="m1796.77,1131.14l-123.6-254.46c7.1-89.12-52.84-176.81-147.19-206.27-44.77-13.92-91.46-13.16-133.63,1.83-29.82-62.79-89.9-112.9-164.56-136.17-70.43-21.91-142.98-16.96-201.28,13.34-49.77-31.96-112.91-49.43-179.37-49.43-141.6,0-258.6,80.43-273.92,183.52-20.82-7.98-43-12.12-65.46-12.12-102.4,0-185.7,84.69-185.7,188.8,0,7.95.53,15.55,1.46,22.87l-120.45,247.99c-34.9,71.86-15.98,158.38,46.03,208.77,93.94,76.33,300.27,155.04,750.81,160.21,458.14-5.27,663.76-86.56,755.47-164.08,59.27-50.1,75.32-135,41.42-204.8Zm-592.52,176.83c0,31.93-25.88,57.82-57.81,57.82-29.44,0-53.75-22.01-57.35-50.48h-178.18c-3.61,28.47-27.91,50.48-57.35,50.48-31.93,0-57.81-25.89-57.81-57.82,0-16.99,7.33-32.27,19-42.85-11.67-10.58-19-25.86-19-42.85,0-31.93,25.89-57.82,57.81-57.82,29.45,0,53.75,22.01,57.35,50.48h178.18c3.61-28.47,27.91-50.48,57.35-50.48,31.93,0,57.81,25.89,57.81,57.82,0,16.99-7.33,32.27-19,42.85,11.67,10.58,19,25.86,19,42.85Zm-209.47-272.63c-297.03,0-537.56-65.6-631.47-162.6-.36-4.1-.55-8.29-.55-12.56,0-81.65,65.04-148.08,144.99-148.08,26.03,0,51.57,7.15,73.85,20.68,6.47,3.94,14.59,3.94,21.07.04,6.49-3.9,10.27-11.09,9.82-18.64-.15-2.55-.25-5.11-.25-7.66,0-91.43,105.38-165.81,234.91-165.81,62.96,0,122.1,17.46,166.51,49.16,6.58,4.7,15.33,5.05,22.28.9,49.43-29.55,116.63-35.47,179.76-15.82,69.16,21.55,125.31,71.67,146.56,130.77,1.95,5.42,6.11,9.77,11.44,11.95,5.33,2.18,11.35,2.01,16.54-.49,37.72-18.15,81.65-20.95,123.64-7.9,73.01,22.8,120.6,88.23,119.15,155.96-88.57,101.1-333.63,170.1-638.24,170.1Z"/>
    <path class="cls-1" d="m896.9,823.18c-80.24-30.39-134.31-11.65-165.53,9.44-34.06,22.99-48.64,53.54-49.24,54.83-3.8,8.12-.31,17.75,7.79,21.59,2.24,1.07,4.61,1.57,6.94,1.57,6.09,0,11.93-3.43,14.74-9.27,1.88-3.92,47.51-95.5,173.76-47.69,8.41,3.19,17.81-1.05,21-9.46,3.19-8.41-1.05-17.81-9.46-21Z"/>
    <path class="cls-1" d="m1165.33,721.13c-40.88,4.13-68.19,24.13-69.33,24.98-7.22,5.37-8.72,15.57-3.35,22.79,5.37,7.22,15.57,8.72,22.79,3.35.21-.16,21.64-15.53,53.17-18.71,43.38-4.4,84.56,15.48,122.41,59.03,3.22,3.71,7.75,5.6,12.3,5.6,3.79,0,7.59-1.31,10.68-4,6.79-5.9,7.51-16.18,1.61-22.98-56.28-64.76-112.78-73.84-150.26-70.07Z"/>
  </g>
</svg>