<?xml version="1.0" encoding="UTF-8"?>
<svg id="Layer_1" data-name="Layer 1" xmlns="http://www.w3.org/2000/svg" viewBox="0 0 2000 2000">
  <defs>
    <style>
      .cls-1 {
        fill: #048683;
      }

      .cls-2 {
        fill: #ffffff;
      }
    </style>
  </defs>
  <g>
    <path class="cls-2" d="m920.76,427.28c32.19,13.64,57.79,24.49,79.24,24.49s47.05-10.85,79.24-24.49c42.43-17.98,94.32-39.96,168.13-53.59,64.89-11.98,121.18-6.07,167.38,13.29,74.86,31.37,121.36,96.33,135.91,175.13,11.38,61.63,3.26,132.69-26.83,204.49-8.62,20.57-18.76,43.33-28.44,65.07-47.23,106.06-81.99,184.09-57.89,350.58,7.04,48.68,9.5,113.85,3.16,178.46-5.83,59.39-19.28,118.95-43.67,166.43-35.54,69.2-92.87,110.86-171.73,103.12-112.85-11.08-113.11-72.91-113.49-171.59-.26-66.68-.63-157.71-62.29-260.85-5.46-9.13-12.59-16.2-20.87-20.89-16.61-9.41-40.63-9.42-57.24,0-8.27,4.69-15.41,11.76-20.87,20.89-61.66,103.13-62.02,194.17-62.29,260.85-.44,112.97-22.25,190.14-155.31,170.86-60.07-8.69-101.89-47.81-129.92-102.38-24.39-47.48-37.84-107.05-43.67-166.43-6.34-64.62-3.88-129.79,3.16-178.47,24.09-166.49-10.66-244.53-57.9-350.58-9.69-21.74-19.82-44.51-28.44-65.07-30.09-71.81-38.2-142.87-26.82-204.49,14.55-78.81,61.04-143.76,135.91-175.13,46.2-19.36,102.5-25.27,167.38-13.29,73.46,13.56,107.25,27.78,168.13,53.59h0Z"/>
    <path class="cls-1" d="m736.32,462.63c-46.55-8.59-85.57-4.93-116.36,7.98-46.03,19.29-72.81,59.69-81.7,107.81-8.27,44.81-1.71,98.05,21.51,153.47,10.46,24.95,19.12,44.4,27.38,62.94,53.44,119.98,92.75,208.26,64.98,400.18-6.2,42.86-8.37,100.15-2.81,156.86,4.85,49.44,15.42,97.82,34.11,134.19,15.04,29.28,35.38,49.96,62.24,53.85,57.29,8.29,52.03-38.56,52.2-81.58.31-77.2.72-182.61,75.04-306.91,13.63-22.8,32.04-40.78,53.82-53.13,44.72-25.36,101.81-25.35,146.53,0,21.78,12.35,40.19,30.33,53.82,53.13,74.31,124.3,74.73,229.7,75.04,306.91.19,48.47.32,78.84,32,81.95,40.23,3.95,64.83-19.93,82.44-54.23,18.68-36.37,29.25-84.74,34.11-134.19,5.57-56.7,3.39-114-2.81-156.85-27.77-191.92,11.54-280.2,64.98-400.18,8.26-18.55,16.92-37.99,27.38-62.94,23.22-55.42,29.78-108.66,21.51-153.47-8.88-48.11-35.67-88.53-81.7-107.81-30.8-12.9-69.82-16.57-116.36-7.98-64.25,11.86-111.07,31.7-149.36,47.92-19.32,8.18-36.82,15.6-53.88,21.22,36.91,40.18,64.99,92.26,81.7,168.78-108.66-126.03-253.9-209.87-405.81-237.92h0Z"/>
  </g>
</svg>