<?xml version="1.0" encoding="UTF-8"?>
<svg id="Layer_1" data-name="Layer 1" xmlns="http://www.w3.org/2000/svg" viewBox="0 0 2000 2000">
  <defs>
    <style>
      .cls-2 {
        fill: #ffffff;
      }

      .cls-3 {
        fill: #ffffff;
      }

      .cls-3 {
        fill: #ffffff;
      }
    </style>
  </defs>
  <g>
    <path class="cls-2" d="m1433.68,809.89c-72.99-36.48-160.68-33.75-228.85,7.13-111.14,66.44-138.89,204.09-155.48,286.33-2.93,14.61-5.47,27.28-8.44,38.56-38.74,184.04-117.79,293.92-211.46,293.92-74.18,0-129.85-22.96-165.48-68.23-69.95-88.9-50.72-241.41-41-295.64,93.26,7.77,183.39-45.57,220.11-133.33,4.44-10.62,3.94-22.02-.35-31.78l105.95-253.31c25.19-71.97-10.69-150.14-81.68-177.95l-17.34-6.8c-5.39-17.07-19.51-30.79-38.33-34.4-27.31-5.24-53.7,12.65-58.94,39.96-5.24,27.31,12.65,53.7,39.96,58.94,15.4,2.96,30.36-1.63,41.55-10.92l12.79,5.01c43,16.84,64.73,64.19,50.08,106.23l-105.34,251.72c-9.98,3.8-18.44,11.46-22.89,22.11-25.04,59.85-89.47,94.41-153.19,82.18-63.69-12.22-110.73-68.16-111.88-133.02-.21-11.5-5.25-21.73-13.1-28.96l-4.73-269.17c1.97-46.23,41.19-82.93,87.45-81.8l11.77.29c7.16,11.47,18.77,20.11,33.09,22.86,27.31,5.24,53.7-12.65,58.94-39.96,5.24-27.31-12.65-53.7-39.96-58.94-20.02-3.84-39.46,4.82-50.52,20.44l-11.96-.3c-76.38-1.87-141.15,58.71-144.4,136.71l4.71,270.85c-7.59,7.49-12.28,17.9-12.08,29.4,1.63,91.74,61.25,172.09,145.78,202.16-11.2,60.16-33.64,233.09,51.66,341.67,46.71,59.47,117.14,89.61,209.3,89.61,121.94,0,221.33-126.38,265.56-336.64,2.97-11.11,5.7-24.72,8.89-40.48,14.76-73.21,39.46-195.76,129.51-249.59,52.03-31.21,119.22-33.18,175.38-5.09,38.1,19.05,125.23,76.35,111.47,196.74-2.54,22.29-20.72,139.09-130.09,249.29-1.02,1.02-1.46,2.33-2.28,3.46,15.78,9.5,29.6,21.84,40.78,36.39.3-.28.7-.37.99-.66,94.75-95.48,137.5-208.38,145.88-282.18,12.33-107.72-40.71-202.23-141.86-252.81Z"/>
    <path class="cls-3" d="m1357.29,1453.31c0,34.86-28.36,63.26-63.42,63.26s-63.26-28.4-63.26-63.26,28.4-63.42,63.26-63.42,63.42,28.4,63.42,63.42Z"/>
    <path class="cls-2" d="m1410.14,1364.09c-11.2-14.56-25-26.89-40.81-36.41-22.06-13.26-47.82-21.06-75.46-21.06-81.04,0-146.69,65.65-146.69,146.69s65.65,146.69,146.69,146.69,146.69-65.65,146.69-146.69c0-33.6-11.41-64.47-30.41-89.22Zm-116.28,184.73c-52.68,0-95.51-42.83-95.51-95.51s42.83-95.51,95.51-95.51,95.51,42.66,95.51,95.51-42.66,95.51-95.51,95.51Z"/>
  </g>
</svg>