<?xml version="1.0" encoding="UTF-8"?>
<svg id="Layer_1" data-name="Layer 1" xmlns="http://www.w3.org/2000/svg" viewBox="0 0 2000 2000">
  <defs>
    <style>
      .cls-1 {
        fill: #fff;
      }
    </style>
  </defs>
  <g>
    <path class="cls-1" d="m1000,1551c-226.5,0-410.77-184.27-410.77-410.77s184.27-410.77,410.77-410.77,410.77,184.27,410.77,410.77-184.27,410.77-410.77,410.77Zm0-764.89c-195.26,0-354.11,158.86-354.11,354.11s158.86,354.11,354.11,354.11,354.11-158.86,354.11-354.11-158.86-354.11-354.11-354.11Z"/>
    <path class="cls-1" d="m1152.87,817.91c-4.17,0-8.41-.93-12.41-2.88-14.06-6.87-19.89-23.83-13.02-37.89,9.43-19.3,14.21-40.11,14.21-61.85,0-78.1-63.54-141.65-141.65-141.65s-141.65,63.54-141.65,141.65c0,21.74,4.78,42.55,14.21,61.85,6.87,14.06,1.04,31.02-13.02,37.89-14.06,6.86-31.02,1.04-37.89-13.02-13.24-27.11-19.96-56.28-19.96-86.72,0-109.34,88.96-198.3,198.3-198.3s198.3,88.96,198.3,198.3c0,30.43-6.71,59.61-19.96,86.72-4.91,10.05-14.99,15.9-25.48,15.9Z"/>
    <path class="cls-1" d="m891.26,598.13c-8.61,0-17.12-3.91-22.69-11.33l-82.1-109.47c-5.85-7.8-7.28-18.07-3.78-27.17l42.49-110.48c5.62-14.6,22.01-21.88,36.61-16.27,14.6,5.61,21.89,22.01,16.27,36.61l-36.87,95.85,72.7,96.93c9.39,12.52,6.85,30.28-5.67,39.66-5.1,3.82-11.06,5.67-16.98,5.67Z"/>
    <path class="cls-1" d="m1108.74,598.13c-5.92,0-11.88-1.84-16.97-5.67-12.52-9.39-15.05-27.14-5.67-39.66l72.7-96.93-36.87-95.85c-5.62-14.6,1.67-30.99,16.27-36.61,14.61-5.61,30.99,1.67,36.61,16.27l42.49,110.48c3.5,9.1,2.07,19.37-3.78,27.17l-82.1,109.47c-5.57,7.41-14.07,11.33-22.69,11.33Z"/>
    <path class="cls-1" d="m752.45,841.15c-4.26,0-8.58-.96-12.65-3l-156.52-78.24c-5.48-2.74-9.93-7.19-12.67-12.67l-80.76-161.53-76.54-38.27c-13.99-7-19.67-24.01-12.67-38.01,7-13.99,24.01-19.67,38.01-12.67l84.99,42.49c5.48,2.74,9.93,7.19,12.67,12.67l80.76,161.53,148.07,74.02c13.99,7,19.67,24.01,12.67,38.01-4.96,9.93-14.97,15.67-25.36,15.67Z"/>
    <path class="cls-1" d="m617.81,1089.59c-3.31,0-6.67-.58-9.95-1.81l-129.29-48.5c-6.74-2.53-12.27-7.53-15.46-13.99l-101.82-206.4-51.24-38.43c-12.52-9.39-15.05-27.14-5.67-39.66s27.14-15.05,39.66-5.67l56.66,42.49c3.56,2.67,6.44,6.14,8.41,10.13l99.86,202.42,118.8,44.56c14.65,5.5,22.07,21.82,16.58,36.47-4.27,11.37-15.06,18.39-26.53,18.39Z"/>
    <path class="cls-1" d="m342.79,1678.49c-8.61,0-17.12-3.92-22.69-11.33-9.39-12.52-6.85-30.28,5.67-39.66l48.27-36.2,35.44-159.74c1.53-6.9,5.58-12.97,11.37-17.04l210.68-148.1c12.8-9,30.47-5.92,39.47,6.88,9,12.8,5.92,30.47-6.88,39.47l-201.69,141.79-35.33,159.25c-1.46,6.6-5.25,12.47-10.66,16.53l-56.66,42.49c-5.1,3.82-11.06,5.67-16.97,5.67Z"/>
    <path class="cls-1" d="m1247.54,841.14c-10.39,0-20.4-5.74-25.36-15.67-7-13.99-1.32-31.01,12.67-38.01l148.07-74.02,80.76-161.53c2.74-5.48,7.19-9.93,12.67-12.67l84.99-42.49c13.98-7,31.01-1.33,38.01,12.67,7,13.99,1.33,31.01-12.67,38.01l-76.54,38.27-80.76,161.53c-2.74,5.48-7.19,9.93-12.67,12.67l-156.52,78.24c-4.07,2.03-8.39,2.99-12.65,2.99Z"/>
    <path class="cls-1" d="m1382.19,1089.59c-11.47,0-22.26-7.02-26.53-18.39-5.49-14.65,1.93-30.98,16.58-36.47l118.8-44.56,99.86-202.42c1.97-3.99,4.85-7.46,8.41-10.13l56.66-42.49c12.52-9.39,30.28-6.85,39.66,5.67,9.39,12.52,6.85,30.28-5.67,39.66l-51.24,38.43-101.82,206.4c-3.18,6.46-8.71,11.46-15.46,13.99l-129.29,48.5c-3.28,1.23-6.64,1.82-9.95,1.82Z"/>
    <path class="cls-1" d="m1657.21,1678.49c-5.92,0-11.88-1.84-16.97-5.67l-56.66-42.49c-5.41-4.06-9.19-9.92-10.66-16.53l-35.33-159.25-201.69-141.79c-12.8-9-15.88-26.67-6.88-39.47,9-12.8,26.66-15.88,39.47-6.88l210.68,148.1c5.78,4.07,9.84,10.14,11.37,17.04l35.44,159.74,48.27,36.2c12.52,9.39,15.05,27.14,5.67,39.66-5.57,7.42-14.07,11.33-22.69,11.33Z"/>
  </g>
</svg>