<?xml version="1.0" encoding="UTF-8"?>
<svg id="Layer_1" data-name="Layer 1" xmlns="http://www.w3.org/2000/svg" viewBox="0 0 2000 2000">
  <defs>
    <style>
      .cls-2 {
        fill: #fff;
      }

      .cls-2 {
        fill-rule: evenodd;
      }
    </style>
  </defs>
  <g>
    <path class="cls-2" d="m1385.92,1136.3c-7.58,0-15.16-2.89-20.94-8.69l-492.59-492.59c-11.58-11.58-11.58-30.33,0-41.9,11.58-11.58,30.33-11.58,41.9,0l492.58,492.59c11.58,11.56,11.58,30.33,0,41.9-5.78,5.78-13.36,8.69-20.96,8.69Z"/>
    <path class="cls-2" d="m848.51,1462.31c-7.58,0-15.17-2.88-20.96-8.69l-281.18-281.19c-11.58-11.56-11.58-30.33,0-41.9l431.72-431.71c11.58-11.58,30.33-11.58,41.9,0l21.6,21.58c11.57,11.58,11.57,30.33,0,41.91-11.58,11.58-30.34,11.58-41.91,0l-.65-.64-389.82,389.8,239.29,239.29,72.58-72.57c11.58-11.58,30.33-11.57,41.91,0,11.58,11.57,11.58,30.34,0,41.9l-93.54,93.54c-5.79,5.79-13.37,8.68-20.95,8.68h0Zm177.82-177.82c7.58,0,15.18-2.88,20.95-8.69l253.9-253.87c5.56-5.56,8.69-13.1,8.69-20.97s-3.13-15.4-8.69-20.95l-175.31-175.31c-11.58-11.57-30.35-11.57-41.9,0-11.58,11.58-11.58,30.33,0,41.91l154.35,154.36-232.94,232.94c-11.58,11.57-11.58,30.34,0,41.9,5.78,5.8,13.36,8.69,20.95,8.69Z"/>
    <path class="cls-2" d="m1602.54,821.92c-7.58,0-15.17-2.89-20.95-8.68l-286.61-286.6c-11.58-11.58-11.58-30.34,0-41.91,11.58-11.57,30.32-11.57,41.9,0l286.6,286.61c11.59,11.58,11.59,30.33,0,41.9-5.77,5.78-13.35,8.68-20.94,8.68h0Zm-370.9-370.9c-7.59,0-15.17-2.89-20.95-8.68l-23.92-23.91c-11.58-11.58-11.58-30.33,0-41.91,11.57-11.58,30.33-11.58,41.9-.01l23.92,23.91c11.58,11.58,11.58,30.33.02,41.91-5.78,5.78-13.38,8.69-20.96,8.69Z"/>
    <path class="cls-2" d="m397.47,1632.15c-7.58,0-15.16-2.89-20.96-8.69-11.58-11.57-11.58-30.33,0-41.9l78.4-78.39c11.57-11.59,30.33-11.58,41.9,0,11.58,11.57,11.58,30.33,0,41.9l-78.4,78.39c-5.78,5.8-13.36,8.69-20.95,8.69Z"/>
    <path class="cls-2" d="m1139.64,890.01c-7.58,0-15.17-2.88-20.95-8.67-11.57-11.58-11.57-30.33,0-41.91l265.48-265.5c11.56-11.57,30.33-11.57,41.9,0,11.58,11.58,11.58,30.33,0,41.91l-265.48,265.49c-5.78,5.78-13.36,8.68-20.95,8.68Z"/>
    <path class="cls-2" d="m616.23,1548.96c-8.59,0-17.09-3.73-22.91-10.83-2.36-2.87-4.08-6.05-5.21-9.4l-116.83-116.83c-3.34-1.12-6.53-2.84-9.4-5.21-11.79-9.68-14.3-26.75-5.8-39.42l128.13-190.83c4.94-7.36,12.91-12.12,21.73-12.97,8.82-.91,17.56,2.27,23.83,8.53l198.23,198.24c6.27,6.25,9.4,15,8.54,23.81-.85,8.82-5.62,16.8-12.97,21.72l-190.83,128.12c-5.07,3.41-10.82,5.05-16.52,5.05h0Zm-95.59-171.51l101.93,101.93,138.05-92.69-147.29-147.29-92.69,138.05Z"/>
    <path class="cls-2" d="m524.58,1602.46c-7.58,0-15.16-2.89-20.96-8.69l-97.42-97.42c-5.56-5.56-8.67-13.09-8.67-20.95s3.12-15.39,8.67-20.95l74.76-74.76c11.58-11.59,30.33-11.58,41.9,0l97.41,97.42c11.58,11.56,11.58,30.33,0,41.9l-74.76,74.76c-5.77,5.8-13.35,8.69-20.94,8.69h0Zm-55.5-127.04l55.5,55.51,32.86-32.84-55.51-55.51-32.85,32.84Z"/>
    <path class="cls-2" d="m1035.36,945.48c-7.59,0-15.17-2.89-20.95-8.67l-116.2-116.2c-11.58-11.58-11.58-30.33,0-41.91,11.58-11.58,30.33-11.57,41.9,0l116.18,116.19c11.58,11.58,11.58,30.33,0,41.9-5.77,5.79-13.36,8.69-20.94,8.69Z"/>
    <path class="cls-2" d="m899.38,1081.47c-7.58,0-15.16-2.89-20.96-8.69l-116.19-116.19c-11.58-11.58-11.58-30.33,0-41.9,11.58-11.57,30.33-11.57,41.91,0l116.19,116.2c11.58,11.57,11.58,30.34,0,41.9-5.78,5.78-13.36,8.69-20.94,8.69Z"/>
    <path class="cls-2" d="m763.4,1217.44c-7.58,0-15.16-2.89-20.96-8.68l-116.18-116.19c-11.58-11.57-11.58-30.34,0-41.9,11.57-11.59,30.33-11.58,41.91,0l116.19,116.2c11.58,11.58,11.58,30.33,0,41.9-5.79,5.78-13.37,8.67-20.95,8.67Z"/>
  </g>
</svg>